<mxfile host="app.diagrams.net" agent="Mozilla/5.0 (Windows NT 10.0; Win64; x64) AppleWebKit/537.36 (KHTML, like Gecko) Chrome/134.0.0.0 Safari/537.36" version="26.1.1">
  <diagram name="PÃ¡gina-1" id="-bbulcZlmrq9gDs8CSB0">
    <mxGraphModel dx="570" dy="1718" grid="1" gridSize="10" guides="1" tooltips="1" connect="1" arrows="1" fold="1" page="0" pageScale="1" pageWidth="827" pageHeight="1169" background="none" math="0" shadow="0">
      <root>
        <mxCell id="0" />
        <mxCell id="1" parent="0" />
        <mxCell id="nD5WzrKC3GytaL9iKWvK-6" style="edgeStyle=none;curved=1;rounded=0;orthogonalLoop=1;jettySize=auto;html=1;exitX=0.5;exitY=1;exitDx=0;exitDy=0;exitPerimeter=0;entryX=0.5;entryY=0;entryDx=0;entryDy=0;fontSize=12;startSize=8;endSize=8;" edge="1" parent="1" source="nD5WzrKC3GytaL9iKWvK-1" target="nD5WzrKC3GytaL9iKWvK-3">
          <mxGeometry relative="1" as="geometry" />
        </mxCell>
        <mxCell id="nD5WzrKC3GytaL9iKWvK-1" value="INICIO" style="strokeWidth=2;html=1;shape=mxgraph.flowchart.start_1;whiteSpace=wrap;fillColor=#d5e8d4;strokeColor=#82b366;" vertex="1" parent="1">
          <mxGeometry x="235" y="-100" width="100" height="60" as="geometry" />
        </mxCell>
        <mxCell id="nD5WzrKC3GytaL9iKWvK-2" value="FIM" style="strokeWidth=2;html=1;shape=mxgraph.flowchart.start_1;whiteSpace=wrap;fillColor=#d5e8d4;strokeColor=#82b366;" vertex="1" parent="1">
          <mxGeometry x="235" y="1180" width="100" height="60" as="geometry" />
        </mxCell>
        <mxCell id="nD5WzrKC3GytaL9iKWvK-7" style="edgeStyle=none;curved=1;rounded=0;orthogonalLoop=1;jettySize=auto;html=1;exitX=0.5;exitY=1;exitDx=0;exitDy=0;entryX=0.5;entryY=0;entryDx=0;entryDy=0;fontSize=12;startSize=8;endSize=8;" edge="1" parent="1" source="nD5WzrKC3GytaL9iKWvK-3" target="nD5WzrKC3GytaL9iKWvK-4">
          <mxGeometry relative="1" as="geometry" />
        </mxCell>
        <mxCell id="nD5WzrKC3GytaL9iKWvK-3" value="NUMEROS[6]" style="rounded=1;whiteSpace=wrap;html=1;absoluteArcSize=1;arcSize=14;strokeWidth=2;fillColor=#f5f5f5;fontColor=#333333;strokeColor=#666666;" vertex="1" parent="1">
          <mxGeometry x="211" y="-11" width="148" height="44" as="geometry" />
        </mxCell>
        <mxCell id="nD5WzrKC3GytaL9iKWvK-4" value="CONT 1, 6, 1" style="shape=hexagon;perimeter=hexagonPerimeter2;whiteSpace=wrap;html=1;fixedSize=1;fillColor=#fff2cc;strokeColor=#d6b656;" vertex="1" parent="1">
          <mxGeometry x="225" y="65" width="120" height="80" as="geometry" />
        </mxCell>
        <mxCell id="nD5WzrKC3GytaL9iKWvK-15" style="edgeStyle=none;curved=1;rounded=0;orthogonalLoop=1;jettySize=auto;html=1;exitX=0;exitY=0.75;exitDx=0;exitDy=0;entryX=0;entryY=0.5;entryDx=0;entryDy=0;fontSize=12;startSize=8;endSize=8;" edge="1" parent="1" source="nD5WzrKC3GytaL9iKWvK-8" target="nD5WzrKC3GytaL9iKWvK-4">
          <mxGeometry relative="1" as="geometry">
            <Array as="points">
              <mxPoint x="141" y="165" />
            </Array>
          </mxGeometry>
        </mxCell>
        <mxCell id="nD5WzrKC3GytaL9iKWvK-8" value="NUMEROS[CONT]" style="html=1;strokeWidth=2;shape=manualInput;whiteSpace=wrap;rounded=1;size=26;arcSize=11;fillColor=#dae8fc;strokeColor=#6c8ebf;" vertex="1" parent="1">
          <mxGeometry x="214" y="171" width="142" height="64" as="geometry" />
        </mxCell>
        <mxCell id="nD5WzrKC3GytaL9iKWvK-10" style="edgeStyle=none;curved=1;rounded=0;orthogonalLoop=1;jettySize=auto;html=1;exitX=0.5;exitY=1;exitDx=0;exitDy=0;entryX=0.503;entryY=0.162;entryDx=0;entryDy=0;entryPerimeter=0;fontSize=12;startSize=8;endSize=8;" edge="1" parent="1" source="nD5WzrKC3GytaL9iKWvK-4" target="nD5WzrKC3GytaL9iKWvK-8">
          <mxGeometry relative="1" as="geometry" />
        </mxCell>
        <mxCell id="nD5WzrKC3GytaL9iKWvK-19" style="edgeStyle=none;curved=1;rounded=0;orthogonalLoop=1;jettySize=auto;html=1;exitX=0.5;exitY=1;exitDx=0;exitDy=0;exitPerimeter=0;entryX=0.5;entryY=0;entryDx=0;entryDy=0;fontSize=12;startSize=8;endSize=8;" edge="1" parent="1" source="nD5WzrKC3GytaL9iKWvK-12" target="nD5WzrKC3GytaL9iKWvK-18">
          <mxGeometry relative="1" as="geometry" />
        </mxCell>
        <mxCell id="nD5WzrKC3GytaL9iKWvK-12" value="" style="verticalLabelPosition=bottom;verticalAlign=top;html=1;shape=mxgraph.flowchart.on-page_reference;fillColor=#f5f5f5;gradientColor=#b3b3b3;strokeColor=#666666;" vertex="1" parent="1">
          <mxGeometry x="266" y="327" width="38" height="34" as="geometry" />
        </mxCell>
        <mxCell id="nD5WzrKC3GytaL9iKWvK-17" style="edgeStyle=none;curved=1;rounded=0;orthogonalLoop=1;jettySize=auto;html=1;exitX=1;exitY=0.5;exitDx=0;exitDy=0;entryX=0.5;entryY=0;entryDx=0;entryDy=0;entryPerimeter=0;fontSize=12;startSize=8;endSize=8;" edge="1" parent="1" source="nD5WzrKC3GytaL9iKWvK-4" target="nD5WzrKC3GytaL9iKWvK-12">
          <mxGeometry relative="1" as="geometry">
            <Array as="points">
              <mxPoint x="553" y="225" />
            </Array>
          </mxGeometry>
        </mxCell>
        <mxCell id="nD5WzrKC3GytaL9iKWvK-21" style="edgeStyle=none;curved=1;rounded=0;orthogonalLoop=1;jettySize=auto;html=1;exitX=0.5;exitY=1;exitDx=0;exitDy=0;entryX=0.5;entryY=0;entryDx=0;entryDy=0;fontSize=12;startSize=8;endSize=8;" edge="1" parent="1" source="nD5WzrKC3GytaL9iKWvK-18" target="nD5WzrKC3GytaL9iKWvK-20">
          <mxGeometry relative="1" as="geometry" />
        </mxCell>
        <mxCell id="nD5WzrKC3GytaL9iKWvK-18" value="MENOR-VALOR = NUMEROS[1]&lt;div&gt;MAIOR-VALOR = NUMEROS[1]&lt;/div&gt;" style="rounded=1;whiteSpace=wrap;html=1;absoluteArcSize=1;arcSize=14;strokeWidth=2;fillColor=#f5f5f5;fontColor=#333333;strokeColor=#666666;" vertex="1" parent="1">
          <mxGeometry x="172.5" y="392" width="225" height="62" as="geometry" />
        </mxCell>
        <mxCell id="nD5WzrKC3GytaL9iKWvK-27" value="" style="edgeStyle=none;curved=1;rounded=0;orthogonalLoop=1;jettySize=auto;html=1;fontSize=12;startSize=8;endSize=8;" edge="1" parent="1" source="nD5WzrKC3GytaL9iKWvK-20" target="nD5WzrKC3GytaL9iKWvK-26">
          <mxGeometry relative="1" as="geometry" />
        </mxCell>
        <mxCell id="nD5WzrKC3GytaL9iKWvK-20" value="CONT 1, 6, 1" style="shape=hexagon;perimeter=hexagonPerimeter2;whiteSpace=wrap;html=1;fixedSize=1;fillColor=#fff2cc;strokeColor=#d6b656;" vertex="1" parent="1">
          <mxGeometry x="225" y="485" width="120" height="80" as="geometry" />
        </mxCell>
        <mxCell id="nD5WzrKC3GytaL9iKWvK-36" value="" style="edgeStyle=none;curved=1;rounded=0;orthogonalLoop=1;jettySize=auto;html=1;fontSize=12;startSize=8;endSize=8;" edge="1" parent="1" source="nD5WzrKC3GytaL9iKWvK-25" target="nD5WzrKC3GytaL9iKWvK-35">
          <mxGeometry relative="1" as="geometry" />
        </mxCell>
        <mxCell id="nD5WzrKC3GytaL9iKWvK-37" value="S" style="edgeLabel;html=1;align=center;verticalAlign=middle;resizable=0;points=[];fontSize=12;" vertex="1" connectable="0" parent="nD5WzrKC3GytaL9iKWvK-36">
          <mxGeometry x="-0.113" relative="1" as="geometry">
            <mxPoint as="offset" />
          </mxGeometry>
        </mxCell>
        <mxCell id="nD5WzrKC3GytaL9iKWvK-46" style="edgeStyle=none;curved=1;rounded=0;orthogonalLoop=1;jettySize=auto;html=1;exitX=0;exitY=0.5;exitDx=0;exitDy=0;exitPerimeter=0;entryX=0;entryY=0.5;entryDx=0;entryDy=0;fontSize=12;startSize=8;endSize=8;" edge="1" parent="1" source="nD5WzrKC3GytaL9iKWvK-25" target="nD5WzrKC3GytaL9iKWvK-20">
          <mxGeometry relative="1" as="geometry">
            <Array as="points">
              <mxPoint x="110" y="660" />
            </Array>
          </mxGeometry>
        </mxCell>
        <mxCell id="nD5WzrKC3GytaL9iKWvK-25" value="MAIOR-VALOR &amp;lt; NUMEROS[CONT]&amp;nbsp;" style="strokeWidth=2;html=1;shape=mxgraph.flowchart.decision;whiteSpace=wrap;fillColor=#ffe6cc;strokeColor=#d79b00;" vertex="1" parent="1">
          <mxGeometry x="207.5" y="780" width="155" height="110" as="geometry" />
        </mxCell>
        <mxCell id="nD5WzrKC3GytaL9iKWvK-31" value="" style="edgeStyle=none;curved=1;rounded=0;orthogonalLoop=1;jettySize=auto;html=1;fontSize=12;startSize=8;endSize=8;" edge="1" parent="1" source="nD5WzrKC3GytaL9iKWvK-26" target="nD5WzrKC3GytaL9iKWvK-30">
          <mxGeometry relative="1" as="geometry" />
        </mxCell>
        <mxCell id="nD5WzrKC3GytaL9iKWvK-32" value="S" style="edgeLabel;html=1;align=center;verticalAlign=middle;resizable=0;points=[];fontSize=12;" vertex="1" connectable="0" parent="nD5WzrKC3GytaL9iKWvK-31">
          <mxGeometry x="-0.2591" y="2" relative="1" as="geometry">
            <mxPoint as="offset" />
          </mxGeometry>
        </mxCell>
        <mxCell id="nD5WzrKC3GytaL9iKWvK-33" value="" style="edgeStyle=none;curved=1;rounded=0;orthogonalLoop=1;jettySize=auto;html=1;fontSize=12;startSize=8;endSize=8;" edge="1" parent="1" source="nD5WzrKC3GytaL9iKWvK-26" target="nD5WzrKC3GytaL9iKWvK-25">
          <mxGeometry relative="1" as="geometry" />
        </mxCell>
        <mxCell id="nD5WzrKC3GytaL9iKWvK-34" value="N" style="edgeLabel;html=1;align=center;verticalAlign=middle;resizable=0;points=[];fontSize=12;" vertex="1" connectable="0" parent="nD5WzrKC3GytaL9iKWvK-33">
          <mxGeometry x="-0.26" y="-1" relative="1" as="geometry">
            <mxPoint as="offset" />
          </mxGeometry>
        </mxCell>
        <mxCell id="nD5WzrKC3GytaL9iKWvK-26" value="MENOR-VALOR &amp;gt; NUMEROS[CONT]&amp;nbsp;" style="strokeWidth=2;html=1;shape=mxgraph.flowchart.decision;whiteSpace=wrap;fillColor=#ffe6cc;strokeColor=#d79b00;" vertex="1" parent="1">
          <mxGeometry x="207.5" y="630" width="155" height="110" as="geometry" />
        </mxCell>
        <mxCell id="nD5WzrKC3GytaL9iKWvK-30" value="MENOR-VALOR = NUMEROS[CONT]" style="rounded=1;whiteSpace=wrap;html=1;absoluteArcSize=1;arcSize=14;strokeWidth=2;fillColor=#f5f5f5;fontColor=#333333;strokeColor=#666666;" vertex="1" parent="1">
          <mxGeometry x="420" y="662.5" width="240" height="45" as="geometry" />
        </mxCell>
        <mxCell id="nD5WzrKC3GytaL9iKWvK-35" value="MAIOR-VALOR = NUMEROS[CONT]" style="rounded=1;whiteSpace=wrap;html=1;absoluteArcSize=1;arcSize=14;strokeWidth=2;fillColor=#f5f5f5;fontColor=#333333;strokeColor=#666666;" vertex="1" parent="1">
          <mxGeometry x="420" y="812.5" width="240" height="45" as="geometry" />
        </mxCell>
        <mxCell id="nD5WzrKC3GytaL9iKWvK-40" value="" style="verticalLabelPosition=bottom;verticalAlign=top;html=1;shape=mxgraph.flowchart.on-page_reference;fillColor=#f5f5f5;gradientColor=#b3b3b3;strokeColor=#666666;" vertex="1" parent="1">
          <mxGeometry x="266" y="940" width="38" height="34" as="geometry" />
        </mxCell>
        <mxCell id="nD5WzrKC3GytaL9iKWvK-47" style="edgeStyle=none;curved=1;rounded=0;orthogonalLoop=1;jettySize=auto;html=1;exitX=1;exitY=0.5;exitDx=0;exitDy=0;entryX=1;entryY=0.5;entryDx=0;entryDy=0;entryPerimeter=0;fontSize=12;startSize=8;endSize=8;" edge="1" parent="1" source="nD5WzrKC3GytaL9iKWvK-20" target="nD5WzrKC3GytaL9iKWvK-40">
          <mxGeometry relative="1" as="geometry">
            <Array as="points">
              <mxPoint x="550" y="560" />
              <mxPoint x="850" y="780" />
              <mxPoint x="670" y="890" />
            </Array>
          </mxGeometry>
        </mxCell>
        <mxCell id="nD5WzrKC3GytaL9iKWvK-48" value="MAIOR-VALOR" style="strokeWidth=2;html=1;shape=mxgraph.flowchart.display;whiteSpace=wrap;fillColor=#e1d5e7;strokeColor=#9673a6;" vertex="1" parent="1">
          <mxGeometry x="234" y="1020" width="100" height="60" as="geometry" />
        </mxCell>
        <mxCell id="nD5WzrKC3GytaL9iKWvK-51" value="" style="edgeStyle=none;curved=1;rounded=0;orthogonalLoop=1;jettySize=auto;html=1;fontSize=12;startSize=8;endSize=8;" edge="1" parent="1" source="nD5WzrKC3GytaL9iKWvK-49" target="nD5WzrKC3GytaL9iKWvK-2">
          <mxGeometry relative="1" as="geometry" />
        </mxCell>
        <mxCell id="nD5WzrKC3GytaL9iKWvK-49" value="MENOR-VALOR" style="strokeWidth=2;html=1;shape=mxgraph.flowchart.display;whiteSpace=wrap;fillColor=#e1d5e7;strokeColor=#9673a6;" vertex="1" parent="1">
          <mxGeometry x="235" y="1080" width="100" height="60" as="geometry" />
        </mxCell>
        <mxCell id="nD5WzrKC3GytaL9iKWvK-50" style="edgeStyle=none;curved=1;rounded=0;orthogonalLoop=1;jettySize=auto;html=1;entryX=0.5;entryY=0;entryDx=0;entryDy=0;entryPerimeter=0;fontSize=12;startSize=8;endSize=8;" edge="1" parent="1" source="nD5WzrKC3GytaL9iKWvK-40" target="nD5WzrKC3GytaL9iKWvK-48">
          <mxGeometry relative="1" as="geometry" />
        </mxCell>
      </root>
    </mxGraphModel>
  </diagram>
</mxfile>
